<?xml version="1.0" encoding="UTF-8" standalone="no" ?>
<!DOCTYPE svg PUBLIC "-//W3C//DTD SVG 1.1//EN" "http://www.w3.org/Graphics/SVG/1.1/DTD/svg11.dtd">
<svg xmlns="http://www.w3.org/2000/svg" xmlns:xlink="http://www.w3.org/1999/xlink" version="1.1" width="1080" height="1080" viewBox="0 0 1080 1080" xml:space="preserve">
<desc>Created with Fabric.js 5.2.4</desc>
<defs>
</defs>
<g transform="matrix(1 0 0 1 540 540)" id="241f9bca-4d9c-4bb4-80e7-d63583a9e8b8"  >
<rect style="stroke: none; stroke-width: 1; stroke-dasharray: none; stroke-linecap: butt; stroke-dashoffset: 0; stroke-linejoin: miter; stroke-miterlimit: 4; fill: rgb(255,255,255); fill-rule: nonzero; opacity: 1; visibility: hidden;" vector-effect="non-scaling-stroke"  x="-540" y="-540" rx="0" ry="0" width="1080" height="1080" />
</g>
<g transform="matrix(1 0 0 1 540 540)" id="6fa4f369-8710-450f-958b-8fe2a78e0d2d"  >
</g>
<g transform="matrix(1 0 0 1 540 540)" id="fddc0e7a-95c8-44d8-982d-901b7d57d86e"  >
<path style="stroke: rgb(0,0,0); stroke-width: 0; stroke-dasharray: none; stroke-linecap: butt; stroke-dashoffset: 0; stroke-linejoin: miter; stroke-miterlimit: 4; fill: rgb(255,255,255); fill-rule: nonzero; opacity: 1;" vector-effect="non-scaling-stroke"  transform=" translate(-12, -12)" d="M 8 6.5 L 16 6.5 M 7.70502 8.70919 L 12.2826 15.3034 M 4.6 9 L 6.4 9 C 6.96005 9 7.24008 9 7.45399 8.89101 C 7.64215 8.79513 7.79513 8.64215 7.89101 8.45399 C 8 8.24008 8 7.96005 8 7.4 L 8 5.6 C 8 5.03995 8 4.75992 7.89101 4.54601 C 7.79513 4.35785 7.64215 4.20487 7.45399 4.10899 C 7.24008 4 6.96005 4 6.4 4 L 4.6 4 C 4.03995 4 3.75992 4 3.54601 4.10899 C 3.35785 4.20487 3.20487 4.35785 3.10899 4.54601 C 3 4.75992 3 5.03995 3 5.6 L 3 7.4 C 3 7.96005 3 8.24008 3.10899 8.45399 C 3.20487 8.64215 3.35785 8.79513 3.54601 8.89101 C 3.75992 9 4.03995 9 4.6 9 Z M 13.6 20 L 15.4 20 C 15.9601 20 16.2401 20 16.454 19.891 C 16.6422 19.7951 16.7951 19.6422 16.891 19.454 C 17 19.2401 17 18.9601 17 18.4 L 17 16.6 C 17 16.0399 17 15.7599 16.891 15.546 C 16.7951 15.3578 16.6422 15.2049 16.454 15.109 C 16.2401 15 15.9601 15 15.4 15 L 13.6 15 C 13.0399 15 12.7599 15 12.546 15.109 C 12.3578 15.2049 12.2049 15.3578 12.109 15.546 C 12 15.7599 12 16.0399 12 16.6 L 12 18.4 C 12 18.9601 12 19.2401 12.109 19.454 C 12.2049 19.6422 12.3578 19.7951 12.546 19.891 C 12.7599 20 13.0399 20 13.6 20 Z M 17.6 9 L 19.4 9 C 19.9601 9 20.2401 9 20.454 8.89101 C 20.6422 8.79513 20.7951 8.64215 20.891 8.45399 C 21 8.24008 21 7.96005 21 7.4 L 21 5.6 C 21 5.03995 21 4.75992 20.891 4.54601 C 20.7951 4.35785 20.6422 4.20487 20.454 4.10899 C 20.2401 4 19.9601 4 19.4 4 L 17.6 4 C 17.0399 4 16.7599 4 16.546 4.10899 C 16.3578 4.20487 16.2049 4.35785 16.109 4.54601 C 16 4.75992 16 5.03995 16 5.6 L 16 7.4 C 16 7.96005 16 8.24008 16.109 8.45399 C 16.2049 8.64215 16.3578 8.79513 16.546 8.89101 C 16.7599 9 17.0399 9 17.6 9 Z" stroke-linecap="round" />
</g>
</svg>