<?xml version="1.0" encoding="UTF-8" standalone="no" ?>
<!DOCTYPE svg PUBLIC "-//W3C//DTD SVG 1.1//EN" "http://www.w3.org/Graphics/SVG/1.1/DTD/svg11.dtd">
<svg xmlns="http://www.w3.org/2000/svg" xmlns:xlink="http://www.w3.org/1999/xlink" version="1.1" width="1080" height="1080" viewBox="0 0 1080 1080" xml:space="preserve">
<desc>Created with Fabric.js 5.2.4</desc>
<defs>
</defs>
<rect x="0" y="0" width="100%" height="100%" fill="transparent"></rect>
<g transform="matrix(1 0 0 1 540 540)" id="241f9bca-4d9c-4bb4-80e7-d63583a9e8b8"  >
<rect style="stroke: none; stroke-width: 1; stroke-dasharray: none; stroke-linecap: butt; stroke-dashoffset: 0; stroke-linejoin: miter; stroke-miterlimit: 4; fill: rgb(255,255,255); fill-rule: nonzero; opacity: 1; visibility: hidden;" vector-effect="non-scaling-stroke"  x="-540" y="-540" rx="0" ry="0" width="1080" height="1080" />
</g>
<g transform="matrix(1 0 0 1 540 540)" id="6fa4f369-8710-450f-958b-8fe2a78e0d2d"  >
</g>
<g transform="matrix(1 0 0 1 540 540)" id="b0148b50-2ca4-465f-a763-1d602f2fb5cd"  >
<path style="stroke: rgb(0,0,0); stroke-width: 0; stroke-dasharray: none; stroke-linecap: butt; stroke-dashoffset: 0; stroke-linejoin: miter; stroke-miterlimit: 4; fill: rgb(255,255,255); fill-rule: nonzero; opacity: 1;" vector-effect="non-scaling-stroke"  transform=" translate(-12, -12)" d="M 3 21 L 3 17 M 9 21 L 9 13 M 15 21 L 15 15 M 21 21 L 21 11 M 8.43934 5.56066 C 8.71079 5.83211 9.08579 6 9.5 6 C 9.91421 6 10.2892 5.83211 10.5607 5.56066 M 8.43934 5.56066 C 8.16789 5.28921 8 4.91421 8 4.5 C 8 3.67157 8.67157 3 9.5 3 C 10.3284 3 11 3.67157 11 4.5 C 11 4.91421 10.8321 5.28921 10.5607 5.56066 M 8.43934 5.56066 L 5.56066 8.43934 M 5.56066 8.43934 C 5.28921 8.16789 4.91421 8 4.5 8 C 3.67157 8 3 8.67157 3 9.5 C 3 10.3284 3.67157 11 4.5 11 C 5.32843 11 6 10.3284 6 9.5 C 6 9.08579 5.83211 8.71079 5.56066 8.43934 Z M 10.5607 5.56066 L 13.4393 8.43934 M 13.4393 8.43934 C 13.1679 8.71079 13 9.08579 13 9.5 C 13 10.3284 13.6716 11 14.5 11 C 15.3284 11 16 10.3284 16 9.5 C 16 9.08579 15.8321 8.71079 15.5607 8.43934 M 13.4393 8.43934 C 13.7108 8.16789 14.0858 8 14.5 8 C 14.9142 8 15.2892 8.16789 15.5607 8.43934 M 15.5607 8.43934 L 18.4393 5.56066 M 18.4393 5.56066 C 18.7108 5.83211 19.0858 6 19.5 6 C 20.3284 6 21 5.32843 21 4.5 C 21 3.67157 20.3284 3 19.5 3 C 18.6716 3 18 3.67157 18 4.5 C 18 4.91421 18.1679 5.28921 18.4393 5.56066 Z" stroke-linecap="round" />
</g>
</svg>