<?xml version="1.0" encoding="UTF-8" standalone="no" ?>
<!DOCTYPE svg PUBLIC "-//W3C//DTD SVG 1.1//EN" "http://www.w3.org/Graphics/SVG/1.1/DTD/svg11.dtd">
<svg xmlns="http://www.w3.org/2000/svg" xmlns:xlink="http://www.w3.org/1999/xlink" version="1.1" width="1080" height="1080" viewBox="0 0 1080 1080" xml:space="preserve">
<desc>Created with Fabric.js 5.2.4</desc>
<defs>
</defs>
<g transform="matrix(1 0 0 1 540 540)" id="4d5d6f7d-157a-4ce9-a90b-9bf15de78789"  >
<rect style="stroke: none; stroke-width: 1; stroke-dasharray: none; stroke-linecap: butt; stroke-dashoffset: 0; stroke-linejoin: miter; stroke-miterlimit: 4; fill: rgb(255,255,255); fill-rule: nonzero; opacity: 1; visibility: hidden;" vector-effect="non-scaling-stroke"  x="-540" y="-540" rx="0" ry="0" width="1080" height="1080" />
</g>
<g transform="matrix(1 0 0 1 540 540)" id="9d5156c9-4e2f-4a93-927d-35cc0a3b1a24"  >
</g>
<g transform="matrix(1 0 0 1 540 540)" id="fdc2e3df-57b6-4669-97c2-d2fb80eb0a54"  >
<path style="stroke: rgb(0,0,0); stroke-width: 0; stroke-dasharray: none; stroke-linecap: butt; stroke-dashoffset: 0; stroke-linejoin: miter; stroke-miterlimit: 4; fill: rgb(255,255,255); fill-rule: nonzero; opacity: 1;" vector-effect="non-scaling-stroke"  transform=" translate(-12, -12.09)" d="M 22 7.99995 L 20 7.99995 M 20 7.99995 L 19 7.99995 C 17 6.00173 14 3.99974 12 5.99995 M 20 7.99995 L 20 15.9999 M 12 5.99995 L 8.99956 9.00158 C 8.9202 9.08097 8.88052 9.12066 8.84859 9.1558 C 8.15499 9.91889 8.15528 11.0842 8.84927 11.847 C 8.88121 11.8821 8.92098 11.9218 9.00031 12.0011 C 9.07967 12.0804 9.11936 12.1201 9.15449 12.152 C 9.91743 12.8453 11.0824 12.8452 11.8451 12.1516 C 11.8802 12.1197 11.9199 12.08 11.9992 12.0007 L 12.9996 11.0003 M 12 5.99995 C 10 3.99974 7 6.0018 5 8.00001 L 4 8.00001 M 2 8.00001 L 4 8.00001 M 4 8.00001 L 4 15.9999 M 20 15.9999 L 20 18.9999 L 22 18.9999 M 20 15.9999 L 17.1716 15.9999 M 15 12.9999 L 16.5 14.4999 C 16.5796 14.5796 16.6195 14.6194 16.6515 14.6547 C 17.3449 15.4175 17.3449 16.5824 16.6515 17.3452 C 16.6195 17.3805 16.5796 17.4203 16.5 17.4999 C 16.4204 17.5795 16.3805 17.6194 16.3453 17.6515 C 15.5824 18.3449 14.4176 18.3449 13.6547 17.6515 C 13.6195 17.6194 13.5796 17.5795 13.5 17.4999 L 13 16.9999 C 12.4548 17.5452 12.1821 17.8178 11.888 17.9636 C 11.3285 18.2408 10.6715 18.2408 10.112 17.9636 C 9.81788 17.8178 9.54525 17.5452 9 16.9999 C 8.31085 17.9188 6.89563 17.7912 6.38197 16.7639 L 6 15.9999 L 4 15.9999 M 4 15.9999 L 4 18.9999 L 2 18.9999" stroke-linecap="round" />
</g>
</svg>